<svg width="351" height="286" viewBox="0 0 351 286" fill="none" xmlns="http://www.w3.org/2000/svg">
<ellipse cx="199.87" cy="205.283" rx="109.633" ry="55.5238" transform="rotate(14.1288 199.87 205.283)" fill="#CCCCCC"/>
<rect x="204.426" y="123.439" width="100" height="150.37" rx="3" transform="rotate(-20.1444 204.426 123.439)" fill="#8A8EA3"/>
<path d="M204.95 43.7612C205.091 41.7199 207.188 40.415 209.081 41.1914L302.499 79.5034C304.762 80.4319 305.022 83.5341 302.945 84.8264L202.6 147.245C200.522 148.537 197.854 146.933 198.022 144.491L204.95 43.7612Z" fill="white"/>
<circle cx="276.437" cy="124.468" r="2" transform="rotate(15.7576 276.437 124.468)" fill="white"/>
<circle cx="291.437" cy="115.468" r="2" transform="rotate(15.7576 291.437 115.468)" fill="white"/>
<path d="M4.672 49.792C3.24267 49.792 2.176 49.4933 1.472 48.896C0.789333 48.2987 0.448 47.424 0.448 46.272C0.448 45.0773 0.789333 44.192 1.472 43.616C2.176 43.0187 3.24267 42.72 4.672 42.72C6.10133 42.72 7.15733 43.0187 7.84 43.616C8.52267 44.192 8.864 45.0773 8.864 46.272C8.864 47.424 8.52267 48.2987 7.84 48.896C7.17867 49.4933 6.12267 49.792 4.672 49.792ZM1.056 68V50.4H8.256V68H1.056ZM39.8308 68.064L39.0308 66.88C38.2414 67.3493 37.4308 67.712 36.5988 67.968C35.7668 68.2027 34.8921 68.32 33.9748 68.32C32.0121 68.32 30.5081 67.5627 29.4628 66.048C28.4174 64.5333 27.8948 62.336 27.8948 59.456C27.8948 57.3653 28.2148 55.6267 28.8548 54.24C29.4948 52.8533 30.4654 51.8187 31.7668 51.136C33.0894 50.432 34.7534 50.08 36.7588 50.08C37.1214 50.08 37.4841 50.0907 37.8468 50.112C38.2308 50.1333 38.5934 50.1653 38.9348 50.208V44.32H46.1668V68.064H39.8308ZM38.9348 61.984V55.552C38.6574 55.4453 38.3801 55.3707 38.1028 55.328C37.8254 55.2853 37.5374 55.264 37.2388 55.264C36.8121 55.264 36.4601 55.3707 36.1828 55.584C35.9054 55.776 35.6921 56.1173 35.5428 56.608C35.4148 57.0987 35.3508 57.8027 35.3508 58.72C35.3508 59.68 35.4041 60.4267 35.5108 60.96C35.6174 61.4933 35.7881 61.8667 36.0228 62.08C36.2574 62.2933 36.5561 62.4 36.9188 62.4C37.1108 62.4 37.3134 62.3893 37.5268 62.368C37.7401 62.3253 37.9641 62.272 38.1988 62.208C38.4548 62.144 38.7001 62.0693 38.9348 61.984ZM52.601 59.168C52.601 57.8453 52.7397 56.6293 53.017 55.52C53.3157 54.4107 53.8063 53.4507 54.489 52.64C55.1717 51.8293 56.0997 51.2 57.273 50.752C58.4677 50.304 59.961 50.08 61.753 50.08C63.545 50.08 65.0277 50.304 66.201 50.752C67.3743 51.2 68.3023 51.8293 68.985 52.64C69.689 53.4507 70.1797 54.4107 70.457 55.52C70.7557 56.6293 70.905 57.8453 70.905 59.168C70.905 60.512 70.745 61.7493 70.425 62.88C70.1263 63.9893 69.625 64.9493 68.921 65.76C68.217 66.5707 67.2783 67.2 66.105 67.648C64.9317 68.096 63.481 68.32 61.753 68.32C60.025 68.32 58.5743 68.096 57.401 67.648C56.2277 67.2 55.289 66.5707 54.585 65.76C53.881 64.9493 53.369 63.9893 53.049 62.88C52.7503 61.7493 52.601 60.512 52.601 59.168ZM60.025 59.168C60.025 60.1493 60.0783 60.9173 60.185 61.472C60.2917 62.0053 60.473 62.3787 60.729 62.592C60.985 62.8053 61.3263 62.912 61.753 62.912C62.1797 62.912 62.5103 62.8053 62.745 62.592C63.001 62.3787 63.1823 62.0053 63.289 61.472C63.417 60.9173 63.481 60.1493 63.481 59.168C63.481 58.1867 63.4277 57.4293 63.321 56.896C63.2143 56.3627 63.033 55.9893 62.777 55.776C62.5423 55.5627 62.201 55.456 61.753 55.456C61.305 55.456 60.953 55.5627 60.697 55.776C60.4623 55.9893 60.2917 56.3627 60.185 56.896C60.0783 57.4293 60.025 58.1867 60.025 59.168ZM77.3497 68V50.4H83.8457V51.904C84.5497 51.456 85.2004 51.104 85.7977 50.848C86.4164 50.5707 87.0137 50.3787 87.5897 50.272C88.1657 50.144 88.7631 50.08 89.3817 50.08C90.5977 50.08 91.6004 50.304 92.3897 50.752C93.1791 51.2 93.7551 51.8187 94.1177 52.608C94.5017 53.376 94.6937 54.2827 94.6937 55.328V68H87.4937V57.76C87.4937 57.12 87.3657 56.6827 87.1097 56.448C86.8751 56.2133 86.5871 56.096 86.2457 56.096C86.0751 56.096 85.9044 56.1173 85.7337 56.16C85.5631 56.2027 85.3817 56.256 85.1897 56.32C84.9977 56.3627 84.7951 56.4267 84.5817 56.512V68H77.3497ZM105.918 54.24L100.638 53.536C100.872 52.4053 101.043 51.392 101.15 50.496C101.256 49.6 101.31 48.7573 101.31 47.968C101.31 47.5627 101.299 47.168 101.278 46.784C101.256 46.4 101.224 46.0053 101.182 45.6H107.646C107.667 45.792 107.678 45.984 107.678 46.176C107.678 46.368 107.678 46.5493 107.678 46.72C107.678 48.2987 107.528 49.6853 107.23 50.88C106.931 52.0533 106.494 53.1733 105.918 54.24ZM121.239 68.32C120.023 68.32 118.978 68.0853 118.103 67.616C117.25 67.1467 116.588 66.4 116.119 65.376C115.671 64.3307 115.447 62.9653 115.447 61.28V55.552H113.335V50.784L115.447 50.4L116.279 46.944H122.647V50.4H126.007V55.584H122.647V60.672C122.647 61.312 122.743 61.7387 122.935 61.952C123.148 62.1653 123.458 62.272 123.863 62.272C124.098 62.272 124.375 62.24 124.695 62.176C125.015 62.112 125.399 62.048 125.847 61.984L126.775 67.424C125.815 67.744 124.876 67.968 123.959 68.096C123.042 68.2453 122.135 68.32 121.239 68.32ZM1.056 106V82.32H8.256V89.712C8.81067 89.328 9.344 89.0187 9.856 88.784C10.3893 88.5493 10.9227 88.3787 11.456 88.272C11.9893 88.144 12.5227 88.08 13.056 88.08C14.2293 88.08 15.2107 88.2933 16 88.72C16.7893 89.1467 17.3867 89.7547 17.792 90.544C18.1973 91.3333 18.4 92.2933 18.4 93.424V106H11.168V95.76C11.168 95.12 11.0507 94.6827 10.816 94.448C10.5813 94.2133 10.2827 94.096 9.92 94.096C9.74933 94.096 9.57867 94.1173 9.408 94.16C9.23733 94.1813 9.056 94.224 8.864 94.288C8.672 94.352 8.46933 94.4267 8.256 94.512V106H1.056ZM24.5605 100.752C24.5605 99.6853 24.7418 98.8107 25.1045 98.128C25.4885 97.424 26.0752 96.8693 26.8645 96.464C27.6538 96.0373 28.6672 95.7173 29.9045 95.504C31.1632 95.2693 32.6672 95.0987 34.4165 94.992V94.928C34.4165 94.5653 34.1818 94.3093 33.7125 94.16C33.2645 94.0107 32.6352 93.936 31.8245 93.936C31.3552 93.936 30.8218 93.968 30.2245 94.032C29.6272 94.0747 29.0085 94.16 28.3685 94.288C27.7285 94.3947 27.0885 94.5333 26.4485 94.704L25.3605 89.168C26.3632 88.8693 27.5045 88.6133 28.7845 88.4C30.0645 88.1867 31.2592 88.08 32.3685 88.08C34.5872 88.08 36.3578 88.336 37.6805 88.848C39.0032 89.36 39.9632 90.1173 40.5605 91.12C41.1578 92.1227 41.4565 93.36 41.4565 94.832V99.216C41.4565 99.6213 41.5098 99.888 41.6165 100.016C41.7232 100.144 41.8405 100.208 41.9685 100.208C42.0752 100.208 42.1818 100.208 42.2885 100.208C42.4165 100.187 42.5232 100.165 42.6085 100.144L43.1205 105.232C42.6298 105.552 42.0432 105.808 41.3605 106C40.6992 106.213 39.9525 106.32 39.1205 106.32C38.1392 106.32 37.3178 106.181 36.6565 105.904C35.9952 105.605 35.4725 105.179 35.0885 104.624C34.5338 105.008 33.9898 105.328 33.4565 105.584C32.9232 105.84 32.3578 106.021 31.7605 106.128C31.1845 106.256 30.5232 106.32 29.7765 106.32C29.0085 106.32 28.3045 106.192 27.6645 105.936C27.0245 105.68 26.4698 105.307 26.0005 104.816C25.5312 104.325 25.1685 103.739 24.9125 103.056C24.6778 102.373 24.5605 101.605 24.5605 100.752ZM31.7925 100.336C31.7925 100.869 31.8778 101.253 32.0485 101.488C32.2405 101.723 32.4752 101.84 32.7525 101.84C32.8805 101.84 33.0512 101.819 33.2645 101.776C33.4778 101.712 33.6912 101.637 33.9045 101.552C34.1392 101.467 34.3098 101.36 34.4165 101.232V98.64C33.8832 98.6613 33.4458 98.704 33.1045 98.768C32.7632 98.832 32.4965 98.928 32.3045 99.056C32.1125 99.184 31.9738 99.3547 31.8885 99.568C31.8245 99.76 31.7925 100.016 31.7925 100.336ZM52.5862 106L46.6022 88.4H54.3142L57.0022 100.08L59.3382 88.4H66.9543L60.9062 106H52.5862ZM80.977 106.32C79.505 106.32 78.1823 106.16 77.009 105.84C75.857 105.52 74.8757 105.008 74.065 104.304C73.2757 103.6 72.6677 102.683 72.241 101.552C71.8143 100.421 71.601 99.056 71.601 97.456C71.601 95.7707 71.825 94.3307 72.273 93.136C72.721 91.9413 73.361 90.9707 74.193 90.224C75.025 89.4773 76.0063 88.9333 77.137 88.592C78.289 88.2507 79.5477 88.08 80.913 88.08C83.7503 88.08 85.8197 88.752 87.121 90.096C88.4437 91.44 89.105 93.6053 89.105 96.592C89.105 96.848 89.105 97.1893 89.105 97.616C89.105 98.0213 89.0837 98.3947 89.041 98.736C88.4437 98.7787 87.7503 98.832 86.961 98.896C86.193 98.96 85.361 99.024 84.465 99.088C83.5903 99.152 82.6837 99.216 81.745 99.28C80.8277 99.3227 79.9103 99.3653 78.993 99.408C78.993 99.4293 78.993 99.4613 78.993 99.504C78.993 99.5253 78.993 99.5573 78.993 99.6C79.0143 99.8133 79.121 100.016 79.313 100.208C79.505 100.379 79.8357 100.517 80.305 100.624C80.7957 100.731 81.4677 100.784 82.321 100.784C82.8757 100.784 83.4623 100.763 84.081 100.72C84.6997 100.656 85.361 100.571 86.065 100.464C86.769 100.336 87.4943 100.197 88.241 100.048L89.073 105.136C88.1983 105.413 87.3343 105.637 86.481 105.808C85.649 105.979 84.785 106.107 83.889 106.192C82.993 106.277 82.0223 106.32 80.977 106.32ZM79.025 95.536C79.2383 95.536 79.4623 95.536 79.697 95.536C79.953 95.5147 80.209 95.504 80.465 95.504C80.7423 95.4827 81.009 95.472 81.265 95.472C81.521 95.4507 81.7663 95.44 82.001 95.44C81.9797 94.7787 81.905 94.2773 81.777 93.936C81.6703 93.5947 81.521 93.36 81.329 93.232C81.137 93.0827 80.881 93.008 80.561 93.008C80.3477 93.008 80.1557 93.0507 79.985 93.136C79.8143 93.2 79.665 93.328 79.537 93.52C79.409 93.6907 79.3023 93.9467 79.217 94.288C79.1317 94.608 79.0677 95.024 79.025 95.536ZM115.939 106.32C114.723 106.32 113.678 106.085 112.803 105.616C111.95 105.147 111.288 104.4 110.819 103.376C110.371 102.331 110.147 100.965 110.147 99.28V93.552H108.035V88.784L110.147 88.4L110.979 84.944H117.347V88.4H120.707V93.584H117.347V98.672C117.347 99.312 117.443 99.7387 117.635 99.952C117.848 100.165 118.158 100.272 118.563 100.272C118.798 100.272 119.075 100.24 119.395 100.176C119.715 100.112 120.099 100.048 120.547 99.984L121.475 105.424C120.515 105.744 119.576 105.968 118.659 106.096C117.742 106.245 116.835 106.32 115.939 106.32ZM131.16 87.792C129.73 87.792 128.664 87.4933 127.96 86.896C127.277 86.2987 126.936 85.424 126.936 84.272C126.936 83.0773 127.277 82.192 127.96 81.616C128.664 81.0187 129.73 80.72 131.16 80.72C132.589 80.72 133.645 81.0187 134.328 81.616C135.01 82.192 135.352 83.0773 135.352 84.272C135.352 85.424 135.01 86.2987 134.328 86.896C133.666 87.4933 132.61 87.792 131.16 87.792ZM127.544 106V88.4H134.744V106H127.544ZM141.656 106V88.4H148.152V89.904C148.835 89.4347 149.475 89.072 150.072 88.816C150.669 88.56 151.245 88.3787 151.8 88.272C152.376 88.144 152.92 88.08 153.432 88.08C154.136 88.08 154.733 88.1547 155.224 88.304C155.736 88.432 156.184 88.6453 156.568 88.944C156.952 89.2427 157.272 89.616 157.528 90.064C158.36 89.552 159.096 89.1573 159.736 88.88C160.376 88.5813 160.984 88.3787 161.56 88.272C162.136 88.144 162.723 88.08 163.32 88.08C163.939 88.08 164.504 88.1547 165.016 88.304C165.528 88.4533 165.987 88.6773 166.392 88.976C166.797 89.2747 167.139 89.6373 167.416 90.064C167.693 90.4907 167.896 90.9813 168.024 91.536C168.173 92.0693 168.248 92.6667 168.248 93.328V106H161.016V95.76C161.016 95.4827 160.984 95.2373 160.92 95.024C160.877 94.8107 160.803 94.6507 160.696 94.544C160.611 94.416 160.493 94.32 160.344 94.256C160.216 94.192 160.067 94.16 159.896 94.16C159.789 94.16 159.661 94.1813 159.512 94.224C159.384 94.2453 159.235 94.2773 159.064 94.32C158.915 94.3627 158.744 94.4267 158.552 94.512C158.552 94.6187 158.552 94.7253 158.552 94.832C158.552 94.9387 158.552 95.0453 158.552 95.152V106H151.352V95.76C151.352 95.4827 151.32 95.2373 151.256 95.024C151.192 94.8107 151.107 94.6507 151 94.544C150.915 94.416 150.797 94.32 150.648 94.256C150.499 94.192 150.339 94.16 150.168 94.16C150.04 94.16 149.901 94.1813 149.752 94.224C149.603 94.2453 149.453 94.288 149.304 94.352C149.176 94.3947 149.037 94.448 148.888 94.512V106H141.656ZM184.039 106.32C182.567 106.32 181.245 106.16 180.071 105.84C178.919 105.52 177.938 105.008 177.127 104.304C176.338 103.6 175.73 102.683 175.303 101.552C174.877 100.421 174.663 99.056 174.663 97.456C174.663 95.7707 174.887 94.3307 175.335 93.136C175.783 91.9413 176.423 90.9707 177.255 90.224C178.087 89.4773 179.069 88.9333 180.199 88.592C181.351 88.2507 182.61 88.08 183.975 88.08C186.813 88.08 188.882 88.752 190.183 90.096C191.506 91.44 192.167 93.6053 192.167 96.592C192.167 96.848 192.167 97.1893 192.167 97.616C192.167 98.0213 192.146 98.3947 192.103 98.736C191.506 98.7787 190.813 98.832 190.023 98.896C189.255 98.96 188.423 99.024 187.527 99.088C186.653 99.152 185.746 99.216 184.807 99.28C183.89 99.3227 182.973 99.3653 182.055 99.408C182.055 99.4293 182.055 99.4613 182.055 99.504C182.055 99.5253 182.055 99.5573 182.055 99.6C182.077 99.8133 182.183 100.016 182.375 100.208C182.567 100.379 182.898 100.517 183.367 100.624C183.858 100.731 184.53 100.784 185.383 100.784C185.938 100.784 186.525 100.763 187.143 100.72C187.762 100.656 188.423 100.571 189.127 100.464C189.831 100.336 190.557 100.197 191.303 100.048L192.135 105.136C191.261 105.413 190.397 105.637 189.543 105.808C188.711 105.979 187.847 106.107 186.951 106.192C186.055 106.277 185.085 106.32 184.039 106.32ZM182.087 95.536C182.301 95.536 182.525 95.536 182.759 95.536C183.015 95.5147 183.271 95.504 183.527 95.504C183.805 95.4827 184.071 95.472 184.327 95.472C184.583 95.4507 184.829 95.44 185.063 95.44C185.042 94.7787 184.967 94.2773 184.839 93.936C184.733 93.5947 184.583 93.36 184.391 93.232C184.199 93.0827 183.943 93.008 183.623 93.008C183.41 93.008 183.218 93.0507 183.047 93.136C182.877 93.2 182.727 93.328 182.599 93.52C182.471 93.6907 182.365 93.9467 182.279 94.288C182.194 94.608 182.13 95.024 182.087 95.536ZM198.371 102.576C198.371 101.339 198.67 100.411 199.267 99.792C199.886 99.152 200.878 98.832 202.243 98.832C203.63 98.832 204.622 99.152 205.219 99.792C205.817 100.411 206.115 101.339 206.115 102.576C206.115 103.792 205.817 104.72 205.219 105.36C204.622 105.979 203.63 106.288 202.243 106.288C200.878 106.288 199.886 105.979 199.267 105.36C198.67 104.72 198.371 103.792 198.371 102.576ZM212.203 102.576C212.203 101.339 212.501 100.411 213.099 99.792C213.717 99.152 214.709 98.832 216.075 98.832C217.461 98.832 218.453 99.152 219.051 99.792C219.648 100.411 219.947 101.339 219.947 102.576C219.947 103.792 219.648 104.72 219.051 105.36C218.453 105.979 217.461 106.288 216.075 106.288C214.709 106.288 213.717 105.979 213.099 105.36C212.501 104.72 212.203 103.792 212.203 102.576ZM226.034 102.576C226.034 101.339 226.332 100.411 226.93 99.792C227.548 99.152 228.54 98.832 229.906 98.832C231.292 98.832 232.284 99.152 232.882 99.792C233.479 100.411 233.778 101.339 233.778 102.576C233.778 103.792 233.479 104.72 232.882 105.36C232.284 105.979 231.292 106.288 229.906 106.288C228.54 106.288 227.548 105.979 226.93 105.36C226.332 104.72 226.034 103.792 226.034 102.576Z" fill="black"/>
<ellipse cx="291.848" cy="136.267" rx="4" ry="9.48357" transform="rotate(-18.8361 291.848 136.267)" fill="white"/>
<rect x="288" y="153" width="19" height="3" rx="1.5" fill="white"/>
</svg>
