<svg width="275" height="223" viewBox="0 0 275 223" fill="none" xmlns="http://www.w3.org/2000/svg">
<ellipse rx="90.1902" ry="38.2115" transform="matrix(0.943485 0.331414 -0.410268 0.911965 100.77 157.738)" fill="#CCCCCC"/>
<circle cx="25" cy="47" r="25" fill="#4E7B57"/>
<circle cx="25" cy="90" r="25" fill="#4E7B57"/>
<circle cx="25" cy="127" r="25" fill="#4E7B57"/>
<circle cx="61.2139" cy="146" r="25" fill="#4E7B57"/>
<circle cx="98.5596" cy="156" r="25" fill="#4E7B57"/>
<ellipse cx="12.4484" cy="44" rx="2.26337" ry="2" fill="white"/>
<ellipse cx="23.7653" cy="43" rx="2.26337" ry="2" fill="white"/>
<path d="M13.9409 53.2015H24.727" stroke="white" stroke-width="2" stroke-linecap="round"/>
<path d="M98.1945 31.32C97.1065 31.32 96.1465 31.1173 95.3145 30.712C94.5038 30.3067 93.8638 29.688 93.3945 28.856C92.9252 28.0027 92.6905 26.9147 92.6905 25.592V13.4H99.8905V23.832C99.8905 24.408 100.019 24.8027 100.275 25.016C100.531 25.2293 100.829 25.336 101.171 25.336C101.363 25.336 101.533 25.336 101.683 25.336C101.853 25.3147 102.024 25.272 102.195 25.208C102.387 25.144 102.589 25.0587 102.803 24.952V13.4H110.003V24.312C110.003 24.5253 110.024 24.7067 110.067 24.856C110.131 24.984 110.205 25.08 110.291 25.144C110.376 25.1867 110.472 25.208 110.579 25.208C110.792 25.208 110.984 25.176 111.155 25.112L111.667 30.232C111.368 30.424 110.995 30.6053 110.547 30.776C110.12 30.9467 109.64 31.0747 109.107 31.16C108.595 31.2667 108.051 31.32 107.475 31.32C106.515 31.32 105.747 31.1707 105.171 30.872C104.595 30.552 104.093 30.1253 103.667 29.592C103.091 29.9547 102.515 30.2747 101.939 30.552C101.363 30.808 100.765 31 100.147 31.128C99.5278 31.256 98.8772 31.32 98.1945 31.32ZM117.554 31V13.4H124.05V14.904C124.732 14.4347 125.372 14.072 125.97 13.816C126.567 13.56 127.143 13.3787 127.698 13.272C128.274 13.144 128.818 13.08 129.33 13.08C130.034 13.08 130.631 13.1547 131.122 13.304C131.634 13.432 132.082 13.6453 132.466 13.944C132.85 14.2427 133.17 14.616 133.426 15.064C134.258 14.552 134.994 14.1573 135.634 13.88C136.274 13.5813 136.882 13.3787 137.458 13.272C138.034 13.144 138.62 13.08 139.218 13.08C139.836 13.08 140.402 13.1547 140.914 13.304C141.426 13.4533 141.884 13.6773 142.29 13.976C142.695 14.2747 143.036 14.6373 143.314 15.064C143.591 15.4907 143.794 15.9813 143.922 16.536C144.071 17.0693 144.146 17.6667 144.146 18.328V31H136.914V20.76C136.914 20.4827 136.882 20.2373 136.818 20.024C136.775 19.8107 136.7 19.6507 136.594 19.544C136.508 19.416 136.391 19.32 136.242 19.256C136.114 19.192 135.964 19.16 135.794 19.16C135.687 19.16 135.559 19.1813 135.41 19.224C135.282 19.2453 135.132 19.2773 134.962 19.32C134.812 19.3627 134.642 19.4267 134.45 19.512C134.45 19.6187 134.45 19.7253 134.45 19.832C134.45 19.9387 134.45 20.0453 134.45 20.152V31H127.25V20.76C127.25 20.4827 127.218 20.2373 127.154 20.024C127.09 19.8107 127.004 19.6507 126.898 19.544C126.812 19.416 126.695 19.32 126.546 19.256C126.396 19.192 126.236 19.16 126.066 19.16C125.938 19.16 125.799 19.1813 125.65 19.224C125.5 19.2453 125.351 19.288 125.202 19.352C125.074 19.3947 124.935 19.448 124.786 19.512V31H117.554ZM151.041 31V13.4H157.537V14.904C158.22 14.4347 158.86 14.072 159.457 13.816C160.055 13.56 160.631 13.3787 161.185 13.272C161.761 13.144 162.305 13.08 162.817 13.08C163.521 13.08 164.119 13.1547 164.609 13.304C165.121 13.432 165.569 13.6453 165.953 13.944C166.337 14.2427 166.657 14.616 166.913 15.064C167.745 14.552 168.481 14.1573 169.121 13.88C169.761 13.5813 170.369 13.3787 170.945 13.272C171.521 13.144 172.108 13.08 172.705 13.08C173.324 13.08 173.889 13.1547 174.401 13.304C174.913 13.4533 175.372 13.6773 175.777 13.976C176.183 14.2747 176.524 14.6373 176.801 15.064C177.079 15.4907 177.281 15.9813 177.409 16.536C177.559 17.0693 177.633 17.6667 177.633 18.328V31H170.401V20.76C170.401 20.4827 170.369 20.2373 170.305 20.024C170.263 19.8107 170.188 19.6507 170.081 19.544C169.996 19.416 169.879 19.32 169.729 19.256C169.601 19.192 169.452 19.16 169.281 19.16C169.175 19.16 169.047 19.1813 168.897 19.224C168.769 19.2453 168.62 19.2773 168.449 19.32C168.3 19.3627 168.129 19.4267 167.937 19.512C167.937 19.6187 167.937 19.7253 167.937 19.832C167.937 19.9387 167.937 20.0453 167.937 20.152V31H160.737V20.76C160.737 20.4827 160.705 20.2373 160.641 20.024C160.577 19.8107 160.492 19.6507 160.385 19.544C160.3 19.416 160.183 19.32 160.033 19.256C159.884 19.192 159.724 19.16 159.553 19.16C159.425 19.16 159.287 19.1813 159.137 19.224C158.988 19.2453 158.839 19.288 158.689 19.352C158.561 19.3947 158.423 19.448 158.273 19.512V31H151.041ZM184.529 31V13.4H191.025V14.904C191.707 14.4347 192.347 14.072 192.945 13.816C193.542 13.56 194.118 13.3787 194.673 13.272C195.249 13.144 195.793 13.08 196.305 13.08C197.009 13.08 197.606 13.1547 198.097 13.304C198.609 13.432 199.057 13.6453 199.441 13.944C199.825 14.2427 200.145 14.616 200.401 15.064C201.233 14.552 201.969 14.1573 202.609 13.88C203.249 13.5813 203.857 13.3787 204.433 13.272C205.009 13.144 205.595 13.08 206.193 13.08C206.811 13.08 207.377 13.1547 207.889 13.304C208.401 13.4533 208.859 13.6773 209.265 13.976C209.67 14.2747 210.011 14.6373 210.289 15.064C210.566 15.4907 210.769 15.9813 210.897 16.536C211.046 17.0693 211.121 17.6667 211.121 18.328V31H203.889V20.76C203.889 20.4827 203.857 20.2373 203.793 20.024C203.75 19.8107 203.675 19.6507 203.569 19.544C203.483 19.416 203.366 19.32 203.217 19.256C203.089 19.192 202.939 19.16 202.769 19.16C202.662 19.16 202.534 19.1813 202.385 19.224C202.257 19.2453 202.107 19.2773 201.937 19.32C201.787 19.3627 201.617 19.4267 201.425 19.512C201.425 19.6187 201.425 19.7253 201.425 19.832C201.425 19.9387 201.425 20.0453 201.425 20.152V31H194.225V20.76C194.225 20.4827 194.193 20.2373 194.129 20.024C194.065 19.8107 193.979 19.6507 193.873 19.544C193.787 19.416 193.67 19.32 193.521 19.256C193.371 19.192 193.211 19.16 193.041 19.16C192.913 19.16 192.774 19.1813 192.625 19.224C192.475 19.2453 192.326 19.288 192.177 19.352C192.049 19.3947 191.91 19.448 191.761 19.512V31H184.529ZM217.6 27.576C217.6 26.3387 217.899 25.4107 218.496 24.792C219.115 24.152 220.107 23.832 221.472 23.832C222.859 23.832 223.851 24.152 224.448 24.792C225.046 25.4107 225.344 26.3387 225.344 27.576C225.344 28.792 225.046 29.72 224.448 30.36C223.851 30.9787 222.859 31.288 221.472 31.288C220.107 31.288 219.115 30.9787 218.496 30.36C217.899 29.72 217.6 28.792 217.6 27.576ZM231.432 27.576C231.432 26.3387 231.73 25.4107 232.328 24.792C232.946 24.152 233.938 23.832 235.304 23.832C236.69 23.832 237.682 24.152 238.28 24.792C238.877 25.4107 239.176 26.3387 239.176 27.576C239.176 28.792 238.877 29.72 238.28 30.36C237.682 30.9787 236.69 31.288 235.304 31.288C233.938 31.288 232.946 30.9787 232.328 30.36C231.73 29.72 231.432 28.792 231.432 27.576ZM245.263 27.576C245.263 26.3387 245.561 25.4107 246.159 24.792C246.777 24.152 247.769 23.832 249.135 23.832C250.521 23.832 251.513 24.152 252.111 24.792C252.708 25.4107 253.007 26.3387 253.007 27.576C253.007 28.792 252.708 29.72 252.111 30.36C251.513 30.9787 250.521 31.288 249.135 31.288C247.769 31.288 246.777 30.9787 246.159 30.36C245.561 29.72 245.263 28.792 245.263 27.576Z" fill="black"/>
</svg>
