<svg width="192" height="145" viewBox="0 0 192 145" fill="none" xmlns="http://www.w3.org/2000/svg">
<path d="M68.5873 13.7097C69.0541 11.7314 71.2913 10.765 73.0256 11.7926L102.797 29.4321C103.825 30.0411 105.118 29.9732 106.085 29.2594L144.561 0.860264C146.728 -0.739053 149.715 1.10399 149.269 3.76554L144.568 31.8583C144.232 33.8653 145.928 35.6112 147.929 35.3188L188.487 29.3927C191.517 28.95 193.15 32.8247 190.739 34.7325L158.451 60.2731C156.858 61.5333 156.93 63.9805 158.594 65.1236L181.888 81.1235C184.095 82.6393 183.343 86.0972 180.703 86.5743L133.824 95.0456C132.646 95.2585 131.703 96.1566 131.426 97.3291L123.413 131.29C122.946 133.269 120.709 134.235 118.974 133.207L89.2032 115.568C88.1754 114.959 86.8822 115.027 85.9151 115.741L47.4388 144.14C45.2719 145.739 42.2852 143.896 42.7306 141.234L47.4321 113.142C47.768 111.135 46.0722 109.389 44.071 109.681L3.51289 115.607C0.48337 116.05 -1.15042 112.175 1.26132 110.267L33.5488 84.7269C35.142 83.4666 35.0697 81.0194 33.4056 79.8764L10.1121 63.8765C7.9052 62.3606 8.65678 58.9027 11.2968 58.4256L58.1759 49.9543C59.3541 49.7414 60.2973 48.8433 60.5739 47.6709L68.5873 13.7097Z" fill="#D2C67A"/>
</svg>
