<svg width="130" height="25" viewBox="0 0 130 25" fill="none" xmlns="http://www.w3.org/2000/svg">
<path d="M10.24 25C8.32 25 7.36 24.0507 7.36 22.152V5.928H3.296C1.71733 5.928 0.928 5.13867 0.928 3.56C0.928 1.98133 1.71733 1.192 3.296 1.192H10.24H17.184C18.7627 1.192 19.552 1.98133 19.552 3.56C19.552 5.13867 18.7627 5.928 17.184 5.928H13.088V22.152C13.088 24.0507 12.1387 25 10.24 25ZM26.1008 25C24.1808 25 23.2208 24.0507 23.2208 22.152V4.04C23.2208 2.14133 24.1808 1.192 26.1008 1.192C27.9994 1.192 28.9488 2.14133 28.9488 4.04V10.248H36.7888V4.008C36.7888 2.13067 37.7381 1.192 39.6368 1.192C41.5141 1.192 42.4528 2.13067 42.4528 4.008V22.184C42.4528 24.0613 41.5141 25 39.6368 25C37.7381 25 36.7888 24.0613 36.7888 22.184V15.208H32.8528H28.9488V22.152C28.9488 24.0507 27.9994 25 26.1008 25ZM50.082 25C49.4633 25 48.962 24.808 48.578 24.424C48.194 24.04 48.002 23.5387 48.002 22.92V3.272C48.002 2.65333 48.194 2.152 48.578 1.768C48.962 1.384 49.4633 1.192 50.082 1.192H60.738C62.3167 1.192 63.106 1.98133 63.106 3.56C63.106 5.13867 62.3167 5.928 60.738 5.928H53.73V10.344H59.298C60.898 10.344 61.698 11.144 61.698 12.744C61.698 14.344 60.898 15.144 59.298 15.144H53.73V20.2H61.058C62.658 20.2 63.458 21 63.458 22.6C63.458 24.2 62.658 25 61.058 25H55.714H50.082ZM78.3508 25C76.4308 25 75.4708 24.0507 75.4708 22.152V3.272C75.4708 2.65333 75.6628 2.152 76.0468 1.768C76.4308 1.384 76.9321 1.192 77.5508 1.192H83.0548H88.3028C89.8814 1.192 90.6708 1.98133 90.6708 3.56C90.6708 5.13867 89.8814 5.928 88.3028 5.928H81.1988V11.144H86.9588C88.5374 11.144 89.3268 11.9333 89.3268 13.512C89.3268 15.112 88.5374 15.912 86.9588 15.912H81.1988V22.152C81.1988 24.0507 80.2494 25 78.3508 25ZM95.3593 25C94.7619 25 94.2819 24.8187 93.9193 24.456C93.5566 24.0933 93.3753 23.6133 93.3753 23.016V22.92C93.3753 22.1307 93.7913 21.352 94.6233 20.584C97.5033 17.9173 99.6153 15.6987 100.959 13.928C102.538 11.8373 103.327 10.0453 103.327 8.552C103.327 7.48533 103.05 6.664 102.495 6.088C101.941 5.49067 101.183 5.192 100.223 5.192C99.4553 5.192 98.6873 5.43733 97.9193 5.928C96.7673 6.97333 95.6686 6.97333 94.6233 5.928C94.1113 5.416 93.8766 4.89333 93.9193 4.36C93.9833 3.82667 94.2819 3.31467 94.8153 2.824C96.5859 1.43733 98.6446 0.743999 100.991 0.743999C103.317 0.743999 105.194 1.42667 106.623 2.792C108.074 4.15733 108.799 5.97066 108.799 8.232C108.799 11.6027 106.41 15.6987 101.631 20.52C103.21 20.3067 104.501 20.2 105.503 20.2H107.487C109.087 20.2 109.887 21 109.887 22.6C109.887 24.2 109.087 25 107.487 25H101.631H95.3593ZM116.363 25C115.745 25 115.243 24.808 114.859 24.424C114.475 24.04 114.283 23.5387 114.283 22.92V3.272C114.283 2.65333 114.475 2.152 114.859 1.768C115.243 1.384 115.745 1.192 116.363 1.192H127.019C128.598 1.192 129.387 1.98133 129.387 3.56C129.387 5.13867 128.598 5.928 127.019 5.928H120.011V10.344H125.579C127.179 10.344 127.979 11.144 127.979 12.744C127.979 14.344 127.179 15.144 125.579 15.144H120.011V20.2H127.339C128.939 20.2 129.739 21 129.739 22.6C129.739 24.2 128.939 25 127.339 25H121.995H116.363Z" fill="#4E7B57"/>
</svg>
